<svg width="512" height="512" viewBox="0 0 512 512" style="color:currentColor" xmlns="http://www.w3.org/2000/svg" class="h-full w-full"><rect width="512" height="512" x="0" y="0" rx="30" fill="transparent" stroke="transparent" stroke-width="0" stroke-opacity="100%" paint-order="stroke"></rect><svg width="256px" height="256px" viewBox="0 0 24 24" fill="currentColor" x="128" y="128" role="img" style="display:inline-block;vertical-align:middle" xmlns="http://www.w3.org/2000/svg"><g fill="currentColor"><path fill="currentColor" fill-rule="evenodd" d="M14.543 2.598a2.821 2.821 0 0 0-5.086 0L1.341 18.563C.37 20.469 1.597 23 3.883 23h16.233c2.287 0 3.512-2.53 2.543-4.437L14.543 2.598ZM12 8a1 1 0 0 1 1 1v5a1 1 0 1 1-2 0V9a1 1 0 0 1 1-1Zm0 8.5a1 1 0 0 1 1 1v.5a1 1 0 1 1-2 0v-.5a1 1 0 0 1 1-1Z" clip-rule="evenodd"/></g></svg></svg>