<svg width="512" height="512" viewBox="0 0 512 512" style="color:currentColor" xmlns="http://www.w3.org/2000/svg" class="h-full w-full"><rect width="512" height="512" x="0" y="0" rx="30" fill="transparent" stroke="transparent" stroke-width="0" stroke-opacity="100%" paint-order="stroke"></rect><svg width="256px" height="256px" viewBox="0 0 24 24" fill="currentColor" x="128" y="128" role="img" style="display:inline-block;vertical-align:middle" xmlns="http://www.w3.org/2000/svg"><g fill="currentColor"><path fill="none" stroke="currentColor" stroke-linecap="round" stroke-linejoin="round" stroke-width="2" d="M2 14.959V9.04C2 8.466 2.448 8 3 8h3.586a.98.98 0 0 0 .707-.305l3-3.388c.63-.656 1.707-.191 1.707.736v13.914c0 .934-1.09 1.395-1.716.726l-2.99-3.369A.98.98 0 0 0 6.578 16H3c-.552 0-1-.466-1-1.041ZM16 8.5c1.333 1.778 1.333 5.222 0 7M19 5c3.988 3.808 4.012 10.217 0 14"/></g></svg></svg>