<svg width="512" height="512" viewBox="0 0 512 512" style="color:currentColor" xmlns="http://www.w3.org/2000/svg" class="h-full w-full"><rect width="512" height="512" x="0" y="0" rx="30" fill="transparent" stroke="transparent" stroke-width="0" stroke-opacity="100%" paint-order="stroke"></rect><svg width="256px" height="256px" viewBox="0 0 24 24" fill="currentColor" x="128" y="128" role="img" style="display:inline-block;vertical-align:middle" xmlns="http://www.w3.org/2000/svg"><g fill="currentColor"><g fill="none" stroke="currentColor" stroke-linecap="round" stroke-linejoin="round" stroke-width="2"><path d="m11.605 5.782l.23-2.369c.091-.952.98-1.598 1.878-1.366c1.351.35 2.3 1.605 2.3 3.044v3.035c0 .675 0 1.013.146 1.26c.083.141.197.26.333.345c.24.151.567.151 1.22.151h.396c1.703 0 2.554 0 3.078.39c.393.293.67.722.78 1.208c.146.65-.181 1.463-.836 3.087l-.326.81a3.261 3.261 0 0 0-.226 1.48c.232 2.874-2.047 5.295-4.833 5.136l-10.424-.599c-1.139-.065-1.708-.098-2.222-.553c-.515-.455-.612-.924-.805-1.861a14.324 14.324 0 0 1 .055-6.037c.283-1.248 1.475-1.92 2.706-1.76c3.264.42 6.223-2.019 6.55-5.4Z"/><path d="m7 11.5l-.137.457A14.983 14.983 0 0 0 7 21"/></g></g></svg></svg>